<mxfile host="app.diagrams.net" modified="2023-11-13T14:13:13.544Z" agent="Mozilla/5.0 (Windows NT 10.0; Win64; x64) AppleWebKit/537.36 (KHTML, like Gecko) Chrome/119.0.0.0 Safari/537.36" etag="vHqboQSFayAGCnxQZ9Pm" version="22.1.0" type="device">
  <diagram name="Page-1" id="Jl4HfGGWPI0d5a2_6Tqt">
    <mxGraphModel dx="743" dy="401" grid="1" gridSize="10" guides="1" tooltips="1" connect="1" arrows="1" fold="1" page="1" pageScale="1" pageWidth="1169" pageHeight="827" math="0" shadow="0">
      <root>
        <mxCell id="0" />
        <mxCell id="1" parent="0" />
        <mxCell id="9pboLUVmAS5yDHoZFYhB-35" value="" style="rounded=0;whiteSpace=wrap;html=1;fillColor=none;" parent="1" vertex="1">
          <mxGeometry x="880" y="120" width="190" height="220" as="geometry" />
        </mxCell>
        <mxCell id="9pboLUVmAS5yDHoZFYhB-23" value="" style="rounded=0;whiteSpace=wrap;html=1;fillColor=none;dashed=1;strokeWidth=2;" parent="1" vertex="1">
          <mxGeometry x="180" y="100" width="680" height="260" as="geometry" />
        </mxCell>
        <mxCell id="9pboLUVmAS5yDHoZFYhB-1" value="" style="rounded=1;whiteSpace=wrap;html=1;fillColor=#dae8fc;strokeColor=#6c8ebf;" parent="1" vertex="1">
          <mxGeometry x="200" y="200" width="160" height="80" as="geometry" />
        </mxCell>
        <mxCell id="9pboLUVmAS5yDHoZFYhB-2" value="" style="rounded=1;whiteSpace=wrap;html=1;fillColor=#dae8fc;strokeColor=#6c8ebf;" parent="1" vertex="1">
          <mxGeometry x="440" y="200" width="160" height="80" as="geometry" />
        </mxCell>
        <mxCell id="9pboLUVmAS5yDHoZFYhB-4" style="rounded=0;orthogonalLoop=1;jettySize=auto;html=1;endArrow=classic;endFill=1;" parent="1" source="9pboLUVmAS5yDHoZFYhB-3" target="9pboLUVmAS5yDHoZFYhB-1" edge="1">
          <mxGeometry relative="1" as="geometry" />
        </mxCell>
        <mxCell id="9pboLUVmAS5yDHoZFYhB-3" value="User" style="shape=umlActor;verticalLabelPosition=bottom;verticalAlign=top;html=1;outlineConnect=0;fontSize=16;" parent="1" vertex="1">
          <mxGeometry x="80" y="210" width="30" height="60" as="geometry" />
        </mxCell>
        <mxCell id="9pboLUVmAS5yDHoZFYhB-7" value="Frontend" style="text;html=1;strokeColor=none;fillColor=none;align=center;verticalAlign=middle;whiteSpace=wrap;rounded=0;fontSize=18;fontStyle=1" parent="1" vertex="1">
          <mxGeometry x="210" y="210" width="140" height="30" as="geometry" />
        </mxCell>
        <mxCell id="9pboLUVmAS5yDHoZFYhB-8" value="React" style="text;html=1;strokeColor=none;fillColor=none;align=center;verticalAlign=middle;whiteSpace=wrap;rounded=0;fontSize=16;" parent="1" vertex="1">
          <mxGeometry x="210" y="240" width="140" height="30" as="geometry" />
        </mxCell>
        <mxCell id="9pboLUVmAS5yDHoZFYhB-9" value="Backend" style="text;html=1;strokeColor=none;fillColor=none;align=center;verticalAlign=middle;whiteSpace=wrap;rounded=0;fontSize=18;fontStyle=1" parent="1" vertex="1">
          <mxGeometry x="450" y="210" width="140" height="30" as="geometry" />
        </mxCell>
        <mxCell id="9pboLUVmAS5yDHoZFYhB-10" value="ASP.NET Core" style="text;html=1;strokeColor=none;fillColor=none;align=center;verticalAlign=middle;whiteSpace=wrap;rounded=0;fontSize=16;" parent="1" vertex="1">
          <mxGeometry x="450" y="240" width="140" height="30" as="geometry" />
        </mxCell>
        <mxCell id="9pboLUVmAS5yDHoZFYhB-13" value="" style="rounded=0;orthogonalLoop=1;jettySize=auto;html=1;endArrow=classic;endFill=1;" parent="1" source="9pboLUVmAS5yDHoZFYhB-1" target="9pboLUVmAS5yDHoZFYhB-2" edge="1">
          <mxGeometry relative="1" as="geometry">
            <mxPoint x="160" y="116" as="sourcePoint" />
            <mxPoint x="251" y="210" as="targetPoint" />
          </mxGeometry>
        </mxCell>
        <mxCell id="9pboLUVmAS5yDHoZFYhB-14" value="" style="shape=cylinder3;whiteSpace=wrap;html=1;boundedLbl=1;backgroundOutline=1;size=15;fillColor=#dae8fc;strokeColor=#6c8ebf;" parent="1" vertex="1">
          <mxGeometry x="680" y="120" width="160" height="100" as="geometry" />
        </mxCell>
        <mxCell id="9pboLUVmAS5yDHoZFYhB-15" value="Database" style="text;html=1;strokeColor=none;fillColor=none;align=center;verticalAlign=middle;whiteSpace=wrap;rounded=0;fontSize=18;fontStyle=1" parent="1" vertex="1">
          <mxGeometry x="690" y="150" width="140" height="30" as="geometry" />
        </mxCell>
        <mxCell id="9pboLUVmAS5yDHoZFYhB-16" value="MongoDB" style="text;html=1;strokeColor=none;fillColor=none;align=center;verticalAlign=middle;whiteSpace=wrap;rounded=0;fontSize=16;" parent="1" vertex="1">
          <mxGeometry x="690" y="180" width="140" height="30" as="geometry" />
        </mxCell>
        <mxCell id="9pboLUVmAS5yDHoZFYhB-17" value="" style="rounded=0;orthogonalLoop=1;jettySize=auto;html=1;endArrow=classic;endFill=1;" parent="1" source="9pboLUVmAS5yDHoZFYhB-2" target="9pboLUVmAS5yDHoZFYhB-14" edge="1">
          <mxGeometry relative="1" as="geometry">
            <mxPoint x="630" y="270" as="sourcePoint" />
            <mxPoint x="740" y="254.76" as="targetPoint" />
          </mxGeometry>
        </mxCell>
        <mxCell id="9pboLUVmAS5yDHoZFYhB-18" value="" style="shape=hexagon;perimeter=hexagonPerimeter2;whiteSpace=wrap;html=1;fixedSize=1;fillColor=#dae8fc;strokeColor=#6c8ebf;" parent="1" vertex="1">
          <mxGeometry x="680" y="260" width="160" height="80" as="geometry" />
        </mxCell>
        <mxCell id="9pboLUVmAS5yDHoZFYhB-19" value="Routing" style="text;html=1;strokeColor=none;fillColor=none;align=center;verticalAlign=middle;whiteSpace=wrap;rounded=0;fontSize=18;fontStyle=1" parent="1" vertex="1">
          <mxGeometry x="690" y="270" width="140" height="30" as="geometry" />
        </mxCell>
        <mxCell id="9pboLUVmAS5yDHoZFYhB-20" value="OSRM" style="text;html=1;strokeColor=none;fillColor=none;align=center;verticalAlign=middle;whiteSpace=wrap;rounded=0;fontSize=16;" parent="1" vertex="1">
          <mxGeometry x="690" y="300" width="140" height="30" as="geometry" />
        </mxCell>
        <mxCell id="9pboLUVmAS5yDHoZFYhB-21" value="" style="rounded=0;orthogonalLoop=1;jettySize=auto;html=1;endArrow=classic;endFill=1;" parent="1" source="9pboLUVmAS5yDHoZFYhB-2" target="9pboLUVmAS5yDHoZFYhB-18" edge="1">
          <mxGeometry relative="1" as="geometry">
            <mxPoint x="610" y="230" as="sourcePoint" />
            <mxPoint x="690" y="210" as="targetPoint" />
          </mxGeometry>
        </mxCell>
        <mxCell id="9pboLUVmAS5yDHoZFYhB-24" value="SmartWalk" style="text;html=1;strokeColor=none;fillColor=none;align=left;verticalAlign=middle;whiteSpace=wrap;rounded=0;spacingLeft=5;fontSize=16;" parent="1" vertex="1">
          <mxGeometry x="180" y="100" width="100" height="30" as="geometry" />
        </mxCell>
        <mxCell id="9pboLUVmAS5yDHoZFYhB-25" value="" style="rounded=1;whiteSpace=wrap;html=1;fillColor=#f5f5f5;strokeColor=#666666;fontColor=#333333;" parent="1" vertex="1">
          <mxGeometry x="200" y="380" width="160" height="80" as="geometry" />
        </mxCell>
        <mxCell id="9pboLUVmAS5yDHoZFYhB-26" value="" style="rounded=1;whiteSpace=wrap;html=1;fillColor=#f5f5f5;strokeColor=#666666;fontColor=#333333;" parent="1" vertex="1">
          <mxGeometry x="680" y="380" width="160" height="80" as="geometry" />
        </mxCell>
        <mxCell id="9pboLUVmAS5yDHoZFYhB-27" value="OpenStreetMap" style="text;html=1;strokeColor=none;fillColor=none;align=center;verticalAlign=middle;whiteSpace=wrap;rounded=0;fontSize=18;fontStyle=1" parent="1" vertex="1">
          <mxGeometry x="210" y="390" width="140" height="30" as="geometry" />
        </mxCell>
        <mxCell id="9pboLUVmAS5yDHoZFYhB-28" value="Tile provider" style="text;html=1;strokeColor=none;fillColor=none;align=center;verticalAlign=middle;whiteSpace=wrap;rounded=0;fontSize=16;" parent="1" vertex="1">
          <mxGeometry x="210" y="420" width="140" height="30" as="geometry" />
        </mxCell>
        <mxCell id="9pboLUVmAS5yDHoZFYhB-29" value="" style="rounded=0;orthogonalLoop=1;jettySize=auto;html=1;endArrow=classic;endFill=1;" parent="1" source="9pboLUVmAS5yDHoZFYhB-1" target="9pboLUVmAS5yDHoZFYhB-25" edge="1">
          <mxGeometry relative="1" as="geometry">
            <mxPoint x="370" y="250" as="sourcePoint" />
            <mxPoint x="310" y="480" as="targetPoint" />
          </mxGeometry>
        </mxCell>
        <mxCell id="9pboLUVmAS5yDHoZFYhB-30" value="" style="rounded=0;orthogonalLoop=1;jettySize=auto;html=1;endArrow=classic;endFill=1;" parent="1" source="9pboLUVmAS5yDHoZFYhB-1" target="9pboLUVmAS5yDHoZFYhB-26" edge="1">
          <mxGeometry relative="1" as="geometry">
            <mxPoint x="266" y="290" as="sourcePoint" />
            <mxPoint x="194" y="410" as="targetPoint" />
          </mxGeometry>
        </mxCell>
        <mxCell id="9pboLUVmAS5yDHoZFYhB-31" value="Solid Server" style="text;html=1;strokeColor=none;fillColor=none;align=center;verticalAlign=middle;whiteSpace=wrap;rounded=0;fontSize=18;fontStyle=1" parent="1" vertex="1">
          <mxGeometry x="690" y="390" width="140" height="30" as="geometry" />
        </mxCell>
        <mxCell id="9pboLUVmAS5yDHoZFYhB-32" value="Personal storage" style="text;html=1;strokeColor=none;fillColor=none;align=center;verticalAlign=middle;whiteSpace=wrap;rounded=0;fontSize=16;" parent="1" vertex="1">
          <mxGeometry x="690" y="420" width="140" height="30" as="geometry" />
        </mxCell>
        <mxCell id="9pboLUVmAS5yDHoZFYhB-33" value="" style="rounded=0;whiteSpace=wrap;html=1;fillColor=#f5f5f5;fontColor=#333333;strokeColor=#666666;" parent="1" vertex="1">
          <mxGeometry x="890" y="170" width="40" height="40" as="geometry" />
        </mxCell>
        <mxCell id="9pboLUVmAS5yDHoZFYhB-34" value="Legend" style="text;html=1;strokeColor=none;fillColor=none;align=center;verticalAlign=middle;whiteSpace=wrap;rounded=0;fontSize=18;fontStyle=1" parent="1" vertex="1">
          <mxGeometry x="880" y="130" width="190" height="30" as="geometry" />
        </mxCell>
        <mxCell id="9pboLUVmAS5yDHoZFYhB-36" value="External system" style="text;html=1;strokeColor=none;fillColor=none;align=left;verticalAlign=middle;whiteSpace=wrap;rounded=0;fontSize=16;spacingLeft=5;" parent="1" vertex="1">
          <mxGeometry x="930" y="170" width="130" height="40" as="geometry" />
        </mxCell>
        <mxCell id="9pboLUVmAS5yDHoZFYhB-37" value="" style="rounded=0;whiteSpace=wrap;html=1;fillColor=#dae8fc;strokeColor=#6c8ebf;" parent="1" vertex="1">
          <mxGeometry x="890" y="230" width="40" height="40" as="geometry" />
        </mxCell>
        <mxCell id="9pboLUVmAS5yDHoZFYhB-38" value="Container" style="text;html=1;strokeColor=none;fillColor=none;align=left;verticalAlign=middle;whiteSpace=wrap;rounded=0;fontSize=16;spacingLeft=5;" parent="1" vertex="1">
          <mxGeometry x="930" y="230" width="130" height="40" as="geometry" />
        </mxCell>
        <mxCell id="9pboLUVmAS5yDHoZFYhB-40" value="" style="rounded=0;orthogonalLoop=1;jettySize=auto;html=1;endArrow=classic;endFill=1;" parent="1" edge="1">
          <mxGeometry relative="1" as="geometry">
            <mxPoint x="890" y="309.8" as="sourcePoint" />
            <mxPoint x="930" y="309.8" as="targetPoint" />
          </mxGeometry>
        </mxCell>
        <mxCell id="9pboLUVmAS5yDHoZFYhB-41" value="Uses" style="text;html=1;strokeColor=none;fillColor=none;align=left;verticalAlign=middle;whiteSpace=wrap;rounded=0;fontSize=16;spacingLeft=5;" parent="1" vertex="1">
          <mxGeometry x="930" y="290" width="130" height="40" as="geometry" />
        </mxCell>
        <mxCell id="_zkRNUheY72AEuT2eVXT-2" value="" style="endArrow=none;dashed=1;html=1;rounded=0;" parent="1" edge="1">
          <mxGeometry width="50" height="50" relative="1" as="geometry">
            <mxPoint x="640" y="460" as="sourcePoint" />
            <mxPoint x="640" y="70" as="targetPoint" />
          </mxGeometry>
        </mxCell>
        <mxCell id="_zkRNUheY72AEuT2eVXT-3" value="Data" style="text;html=1;strokeColor=none;fillColor=none;align=center;verticalAlign=middle;whiteSpace=wrap;rounded=0;fontSize=16;" parent="1" vertex="1">
          <mxGeometry x="640" y="70" width="220" height="30" as="geometry" />
        </mxCell>
        <mxCell id="_zkRNUheY72AEuT2eVXT-4" value="" style="endArrow=none;dashed=1;html=1;rounded=0;" parent="1" edge="1">
          <mxGeometry width="50" height="50" relative="1" as="geometry">
            <mxPoint x="400" y="460" as="sourcePoint" />
            <mxPoint x="400" y="70" as="targetPoint" />
          </mxGeometry>
        </mxCell>
        <mxCell id="_zkRNUheY72AEuT2eVXT-5" value="Application" style="text;html=1;strokeColor=none;fillColor=none;align=center;verticalAlign=middle;whiteSpace=wrap;rounded=0;fontSize=16;" parent="1" vertex="1">
          <mxGeometry x="400" y="70" width="240" height="30" as="geometry" />
        </mxCell>
        <mxCell id="_zkRNUheY72AEuT2eVXT-6" value="Presentation" style="text;html=1;strokeColor=none;fillColor=none;align=center;verticalAlign=middle;whiteSpace=wrap;rounded=0;fontSize=16;" parent="1" vertex="1">
          <mxGeometry x="180" y="70" width="220" height="30" as="geometry" />
        </mxCell>
      </root>
    </mxGraphModel>
  </diagram>
</mxfile>
